<svg version="1.0" xmlns="http://www.w3.org/2000/svg"
 width="126.000000pt" height="27.000000pt" viewBox="0 0 126.000000 27.000000"
 preserveAspectRatio="xMidYMid meet">

<g transform="translate(0.000000,27.000000) scale(0.100000,-0.100000)"
fill="#fff" stroke="none">
<path d="M30 252 c0 -6 18 -53 41 -104 22 -51 43 -101 46 -110 3 -10 8 -18 12
-18 8 0 105 230 99 236 -3 2 -23 -39 -45 -91 -22 -53 -44 -97 -48 -98 -5 -1
-26 38 -48 88 -38 89 -57 121 -57 97z"/>
<path d="M344 135 c0 -72 1 -99 3 -62 2 37 2 96 0 130 -2 34 -3 4 -3 -68z"/>
<path d="M522 240 c-64 -39 -80 -144 -31 -196 77 -82 219 -25 219 88 0 103
-101 161 -188 108z m136 -30 c39 -38 47 -78 28 -124 -39 -94 -177 -81 -205 20
-29 105 100 181 177 104z"/>
<path d="M822 138 l-2 -128 55 0 c30 0 55 5 55 10 0 6 -22 10 -50 10 l-49 0
-4 117 -3 118 -2 -127z"/>
<path d="M1077 129 c-26 -62 -45 -114 -43 -117 5 -4 37 63 73 150 8 21 18 36
22 33 4 -2 25 -45 46 -95 22 -49 43 -90 48 -90 10 0 13 -7 -44 128 -24 56 -46
102 -49 102 -3 0 -27 -50 -53 -111z"/>
<path d="M1110 20 c0 -5 9 -10 20 -10 11 0 20 5 20 10 0 6 -9 10 -20 10 -11 0
-20 -4 -20 -10z"/>
</g>
</svg>
