<?xml version="1.0" standalone="no"?>
<!DOCTYPE svg PUBLIC "-//W3C//DTD SVG 20010904//EN"
 "http://www.w3.org/TR/2001/REC-SVG-20010904/DTD/svg10.dtd">
<svg version="1.0" xmlns="http://www.w3.org/2000/svg"
 width="600.000000pt" height="600.000000pt" viewBox="0 0 600.000000 600.000000"
 preserveAspectRatio="xMidYMid meet">

<g transform="translate(0.000000,600.000000) scale(0.100000,-0.100000)"
fill="#fff" stroke="none">
<path d="M2674 5704 c-502 -60 -991 -268 -1394 -590 -109 -88 -316 -295 -404
-404 -274 -342 -470 -759 -556 -1179 -67 -331 -67 -771 0 -1102 86 -420 282
-837 556 -1179 88 -109 295 -316 404 -404 201 -161 463 -315 697 -410 61 -25
114 -46 117 -46 3 0 6 19 6 43 l0 42 -65 24 c-92 33 -324 149 -430 216 -243
153 -543 424 -708 642 -367 483 -550 1023 -550 1623 0 600 183 1140 550 1623
100 131 359 390 490 490 483 367 1023 550 1623 550 600 0 1140 -183 1623 -550
131 -100 390 -359 490 -490 367 -483 550 -1023 550 -1623 0 -444 -97 -842
-298 -1228 -132 -252 -268 -436 -485 -652 -262 -263 -521 -439 -844 -576
l-101 -43 -3 -41 c-2 -22 1 -40 6 -40 19 0 210 83 324 142 133 67 342 203 468
304 109 88 316 295 404 404 274 342 470 759 556 1179 67 331 67 771 0 1102
-86 420 -282 837 -556 1179 -88 109 -295 316 -404 404 -408 326 -895 531
-1406 591 -159 19 -505 18 -660 -1z"/>
<path d="M2695 3486 c-201 -66 -327 -228 -342 -441 -22 -310 248 -553 563
-508 209 30 374 194 407 404 33 217 -74 423 -269 516 -76 37 -83 38 -199 40
-79 2 -134 -2 -160 -11z m265 -103 c112 -38 215 -142 246 -252 11 -37 15 -80
12 -137 -6 -107 -45 -191 -123 -263 -76 -69 -145 -94 -260 -95 -83 -1 -96 2
-157 32 -76 37 -151 113 -189 189 -21 42 -24 62 -24 158 0 101 2 115 28 168
54 109 169 197 284 217 56 9 120 3 183 -17z"/>
<path d="M770 3471 c0 -26 390 -916 403 -919 10 -2 73 133 213 454 109 251
201 461 203 466 1 5 -23 8 -55 6 l-58 -3 -141 -321 c-77 -176 -145 -331 -151
-344 -9 -21 -27 16 -159 323 l-148 347 -54 0 c-29 0 -53 -4 -53 -9z"/>
<path d="M1900 3015 l0 -465 50 0 50 0 0 465 0 465 -50 0 -50 0 0 -465z"/>
<path d="M3660 3015 l0 -465 230 0 230 0 0 50 0 50 -180 0 -180 0 0 415 0 415
-50 0 -50 0 0 -465z"/>
<path d="M4797 3448 c-8 -18 -98 -225 -201 -461 -102 -235 -186 -430 -186
-433 0 -3 25 -4 56 -2 l56 3 144 330 c79 182 147 338 152 349 6 13 45 -70 157
-333 l150 -351 53 0 c35 0 52 4 52 13 0 7 -87 215 -193 462 -133 311 -198 451
-209 453 -11 2 -22 -8 -31 -30z"/>
<path d="M2210 2415 c-7 -9 -10 -19 -6 -22 8 -9 38 9 44 25 5 17 -23 15 -38
-3z"/>
<path d="M3980 2410 c-8 -16 -8 -20 3 -20 8 0 22 9 32 20 18 19 17 20 -3 20
-12 0 -26 -9 -32 -20z"/>
<path d="M1830 2405 c0 -8 7 -15 15 -15 12 0 15 -14 15 -70 0 -56 3 -70 15
-70 12 0 15 14 15 70 0 56 3 70 15 70 8 0 15 7 15 15 0 11 -12 15 -45 15 -33
0 -45 -4 -45 -15z"/>
<path d="M2320 2405 c0 -8 7 -15 15 -15 8 0 15 7 15 15 0 8 -7 15 -15 15 -8 0
-15 -7 -15 -15z"/>
<path d="M2970 2396 c0 -22 -3 -24 -34 -19 -61 10 -97 -53 -60 -105 13 -18 24
-22 65 -21 l49 2 0 84 c0 49 -4 83 -10 83 -5 0 -10 -11 -10 -24z m-10 -61 c14
-17 5 -51 -16 -59 -35 -13 -73 41 -47 67 12 12 50 7 63 -8z"/>
<path d="M3760 2335 l0 -85 48 0 c57 0 82 20 82 67 0 40 -30 67 -70 61 -26 -4
-30 -2 -30 19 0 14 -6 23 -15 23 -12 0 -15 -16 -15 -85z m100 -5 c15 -27 -22
-69 -47 -54 -24 15 -29 55 -8 70 20 15 42 8 55 -16z"/>
<path d="M1940 2371 c0 -13 49 -121 55 -121 2 0 13 17 23 37 l19 37 14 -37 c7
-20 16 -37 21 -37 7 0 39 66 53 109 12 38 -21 23 -37 -16 l-15 -38 -17 38 c-9
20 -19 37 -22 37 -3 0 -13 -18 -23 -40 l-18 -40 -13 40 c-7 22 -19 40 -27 40
-7 0 -13 -4 -13 -9z"/>
<path d="M2176 2364 c-45 -44 -21 -114 39 -114 42 0 65 22 65 64 0 57 -66 89
-104 50z m74 -29 c14 -17 5 -51 -16 -59 -22 -8 -54 11 -54 32 0 38 46 56 70
27z"/>
<path d="M2320 2305 c0 -43 -4 -75 -10 -75 -5 0 -10 -5 -10 -11 0 -6 10 -9 23
-7 20 3 22 9 25 86 2 68 0 82 -13 82 -12 0 -15 -14 -15 -75z"/>
<path d="M2470 2314 c0 -49 3 -64 14 -64 11 0 16 14 18 48 3 40 6 47 26 50 20
3 22 0 22 -47 0 -38 4 -51 14 -51 11 0 16 14 18 48 3 40 6 47 26 50 20 3 22 0
22 -47 0 -39 4 -51 15 -51 11 0 15 12 15 46 0 76 -7 81 -105 81 l-85 0 0 -63z"/>
<path d="M2717 2362 c-21 -23 -22 -76 -1 -96 25 -25 81 -20 100 9 19 30 11 81
-16 95 -29 15 -65 12 -83 -8z m71 -24 c18 -18 14 -46 -7 -58 -25 -13 -48 -4
-56 21 -12 38 35 65 63 37z"/>
<path d="M3040 2313 c0 -35 4 -63 10 -63 6 0 10 14 10 31 0 40 16 69 39 69 20
0 31 -26 31 -72 0 -16 5 -28 10 -28 15 0 12 106 -3 118 -7 6 -32 10 -55 9
l-42 -1 0 -63z"/>
<path d="M3180 2375 c0 -2 11 -29 24 -58 15 -35 21 -59 15 -68 -13 -20 -11
-39 4 -39 10 0 78 141 77 163 0 21 -23 2 -39 -33 l-18 -40 -18 40 c-10 22 -24
40 -32 40 -7 0 -13 -2 -13 -5z"/>
<path d="M3405 2359 c14 -43 46 -109 53 -109 5 0 14 17 21 37 l14 37 19 -37
c10 -20 21 -37 23 -37 6 0 55 108 55 121 0 24 -27 5 -41 -29 l-16 -37 -16 38
c-9 20 -19 37 -22 37 -3 0 -13 -17 -22 -37 l-16 -38 -15 38 c-16 39 -49 54
-37 16z"/>
<path d="M3610 2371 c0 -5 10 -30 21 -57 18 -39 20 -53 11 -77 -9 -24 -8 -28
5 -25 9 2 30 37 50 81 38 91 37 87 19 87 -8 0 -20 -16 -27 -35 -7 -19 -16 -35
-19 -35 -4 0 -14 16 -23 35 -15 32 -37 47 -37 26z"/>
<path d="M3947 2362 c-21 -23 -22 -76 -1 -96 8 -9 31 -16 49 -16 58 0 86 69
45 110 -25 25 -72 26 -93 2z m71 -24 c18 -18 14 -46 -7 -58 -25 -13 -48 -4
-56 21 -12 38 35 65 63 37z"/>
<path d="M4090 2315 c0 -51 3 -65 15 -65 11 0 15 12 15 45 0 34 5 47 20 55 31
16 24 30 -15 30 l-35 0 0 -65z"/>
<path d="M770 2320 c0 -7 143 -10 410 -10 267 0 410 3 410 10 0 7 -143 10
-410 10 -267 0 -410 -3 -410 -10z"/>
<path d="M4410 2320 c0 -7 143 -10 410 -10 267 0 410 3 410 10 0 7 -143 10
-410 10 -267 0 -410 -3 -410 -10z"/>
<path d="M2967 894 c-11 -12 -8 -59 5 -72 16 -16 53 -15 67 2 7 8 11 27 9 43
-3 24 -8 28 -38 31 -20 2 -39 0 -43 -4z"/>
<path d="M2797 813 c-11 -11 -8 -58 5 -71 28 -28 78 -7 78 33 0 12 -5 26 -12
33 -13 13 -60 16 -71 5z"/>
<path d="M3147 813 c-11 -11 -8 -58 5 -71 28 -28 78 -7 78 33 0 12 -5 26 -12
33 -13 13 -60 16 -71 5z"/>
<path d="M2941 681 c-30 -30 -35 -95 -13 -181 25 -94 65 -195 78 -194 15 2 72
155 85 228 13 79 1 139 -31 156 -32 17 -98 12 -119 -9z"/>
<path d="M2672 678 c-19 -19 -15 -66 7 -78 11 -5 24 -10 30 -10 16 0 41 30 41
50 0 39 -52 64 -78 38z"/>
<path d="M3276 674 c-9 -8 -16 -24 -16 -34 0 -20 25 -50 41 -50 26 0 49 23 49
48 0 49 -42 69 -74 36z"/>
<path d="M2723 496 c-22 -19 -28 -32 -28 -65 0 -34 7 -47 40 -82 47 -47 224
-139 270 -139 46 0 223 92 270 139 33 35 40 48 40 82 0 53 -38 89 -94 89 -31
0 -45 -7 -79 -42 -35 -35 -93 -138 -129 -227 -9 -23 -10 -21 -27 25 -29 77
-81 166 -122 207 -46 46 -97 51 -141 13z"/>
</g>
</svg>
